<?xml version="1.0" ?><svg xmlns="http://www.w3.org/2000/svg" viewBox="0 0 32 32"><g id="_174_trash-02" data-name="174 trash-02"><path d="M24,29H8.05a1,1,0,0,1-1-.95l-1-20a1.06,1.06,0,0,1,.27-.74A1,1,0,0,1,7,7H25a1,1,0,0,1,.73.31,1.06,1.06,0,0,1,.27.74L25,28.05A1,1,0,0,1,24,29ZM9,27H23L24,9H8.05Z"/><rect x="3" y="7" width="26" height="2"/><path d="M21,8.24l-.62-2.48a1,1,0,0,0-1-.76H12.56a1,1,0,0,0-1,.76L11,8.24,9,7.76l.62-2.49A3,3,0,0,1,12.56,3h6.88a3,3,0,0,1,2.91,2.27L23,7.76Z"/><rect x="12" y="13" width="2" height="10"/><rect x="18" y="13" width="2" height="10"/></g></svg>